<svg id="Capa_1" data-name="Capa 1" xmlns="http://www.w3.org/2000/svg" viewBox="0 0 1322 600"><defs><style>.cls-1{fill:#004aad;}.cls-2{fill:#38b6ff;}</style></defs><rect width="1322" height="600"/><path class="cls-1" d="M827.9,191.53H53v48h64l-.13,265h60.92l.09-265H737.67q-5,12.06-5.67,31v156c-.11,55.86,32.07,81,97.36,78,55.47-.62,90.62-21.11,93.64-73v-166C918.94,212.92,886.06,189.17,827.9,191.53ZM861.5,436a31,31,0,0,1-31,31h-6a31,31,0,0,1-31-31V271a31,31,0,0,1,31-31h6a31,31,0,0,1,31,31Z" transform="translate(-1 0)"/><path class="cls-2" d="M388,355.32c8.47-10.72,9.18-23.13,10-36.79a97.14,97.14,0,0,0-1-22c-.33-1.92-2.89-16.5-8.87-26.46-13.94-23.2-48.89-25.34-53.15-25.54H249.51l.28,260h48.37l-.16-117c19,0,35,1,40.05,7.21,5.95,3.79,7.27,30.62,6.95,31.79l3.45,78h48.64l-2.09-87c-1.91-21.62-3-34-30-47C375,366.89,382.61,362.09,388,355.32Zm-39-32.23a30.44,30.44,0,0,1-30.44,30.44H298v-77h20.56A30.44,30.44,0,0,1,349,307Z" transform="translate(-1 0)"/><polygon class="cls-2" points="419.44 244.53 419.99 504.53 470.28 504.53 470.28 244.53 419.44 244.53"/><path class="cls-2" d="M591.55,244.53H503.71v260h50.12l.17-107c67.5,7,98.39-16,100-63v-31C651.38,264.88,626.58,247.72,591.55,244.53ZM605,337.24a28.28,28.28,0,0,1-28.29,28.29H554v-89h22.71A28.28,28.28,0,0,1,605,304.82Z" transform="translate(-1 0)"/><path class="cls-2" d="M947.94,244.53,948,448.08c6,38.63,30.55,58.24,76,56.32,48.13-.5,76.7-18.29,79-59.29h0l.07-200.58h-50l0,199.59c-1,17.79-12.38,23.8-27,22.73-15,.84-25.91-5-28-21.74l0-200.58Z" transform="translate(-1 0)"/><path class="cls-2" d="M946,217.34c83.82-32.05,165.64-42.4,244.27-18.13v32.32L1266,161.38l-75.73-70.15v29.16C1085.83,110.25,1010,152.89,946,217.34Z" transform="translate(-1 0)"/><polygon class="cls-2" points="1110.04 244.53 1110 280.53 1163 280.53 1162.8 504.53 1214 504.53 1214 282.53 1267 282.53 1267 244.53 1110.04 244.53"/></svg>